<?xml version="1.0" encoding="UTF-8" standalone="no"?>
<svg
   version="1.1"
   id="svg14"
   sodipodi:docname="texture_09.svg"
   width="1024"
   height="1024"
   inkscape:version="1.1.2 (0a00cf5339, 2022-02-04)"
   xmlns:inkscape="http://www.inkscape.org/namespaces/inkscape"
   xmlns:sodipodi="http://sodipodi.sourceforge.net/DTD/sodipodi-0.dtd"
   xmlns="http://www.w3.org/2000/svg"
   xmlns:svg="http://www.w3.org/2000/svg">
  <sodipodi:namedview
     id="namedview16"
     pagecolor="#505050"
     bordercolor="#eeeeee"
     borderopacity="1"
     inkscape:pageshadow="0"
     inkscape:pageopacity="0"
     inkscape:pagecheckerboard="0"
     showgrid="false"
     inkscape:zoom="0.17795521"
     inkscape:cx="-5.6193916"
     inkscape:cy="1059.2553"
     inkscape:window-width="1440"
     inkscape:window-height="831"
     inkscape:window-x="1280"
     inkscape:window-y="32"
     inkscape:window-maximized="1"
     inkscape:current-layer="g12" />
  <defs
     id="defs2" />
  <g
     id="g12">
    <path
       stroke="none"
       fill="#000000"
       fill-opacity="0.101961"
       d="M 512,512 H 0 V 0 h 512 v 512 h 512 v 512 H 512 V 512"
       id="path6" />
    <path
       stroke="none"
       fill="#000000"
       fill-opacity="0.2"
       d="M 1023,1 H 513 v 510 h 510 V 1 M 1,1 V 511 H 511 V 1 H 1 M 1,1023 H 511 V 513 H 1 v 510 M 0,0 H 1024 V 1024 H 0 V 0 M 1023,1023 V 513.05 L 513,513 v 510 h 510"
       id="path8" />
    <path
       stroke="none"
       fill="#000000"
       fill-opacity="0.2"
       d="m 768,158 h 1 q 0.4,0 0.7,0.3 l 0.3,0.7 v 96 h 96 q 0.4,0 0.7,0.3 l 0.3,0.7 v 1 l -0.3,0.7 -0.7,0.3 h -96 v 96 l -0.3,0.7 q -0.3,0.3 -0.7,0.3 h -1 l -0.7,-0.3 Q 767,354.4 767,354 v -96 h -96 l -0.7,-0.3 Q 670,257.4 670,257 v -1 q 0,-0.4 0.3,-0.7 0.3,-0.3 0.7,-0.3 h 96 v -96 q 0,-0.4 0.3,-0.7 0.3,-0.3 0.7,-0.3 m 0,512 h 1 q 0.4,0 0.7,0.3 l 0.3,0.7 v 96 h 96 q 0.4,0 0.7,0.3 l 0.3,0.7 v 1 l -0.3,0.7 -0.7,0.3 h -96 v 96 l -0.3,0.7 q -0.3,0.3 -0.7,0.3 h -1 l -0.7,-0.3 Q 767,866.4 767,866 v -96 h -96 l -0.7,-0.3 Q 670,769.4 670,769 v -1 q 0,-0.4 0.3,-0.7 0.3,-0.3 0.7,-0.3 h 96 v -96 q 0,-0.4 0.3,-0.7 0.3,-0.3 0.7,-0.3 M 355,256 v 1 l -0.3,0.7 q -0.3,0.3 -0.7,0.3 h -96 v 96 l -0.3,0.7 -0.7,0.3 h -1 l -0.7,-0.3 Q 255,354.4 255,354 v -96 h -96 l -0.7,-0.3 Q 158,257.4 158,257 v -1 q 0,-0.4 0.3,-0.7 0.3,-0.3 0.7,-0.3 h 96 v -96 q 0,-0.4 0.3,-0.7 0.3,-0.3 0.7,-0.3 h 1 q 0.4,0 0.7,0.3 l 0.3,0.7 v 96 h 96 q 0.4,0 0.7,0.3 L 355,256 M 158,769 v -1 q 0,-0.4 0.3,-0.7 0.3,-0.3 0.7,-0.3 h 96 v -96 q 0,-0.4 0.3,-0.7 0.3,-0.3 0.7,-0.3 h 1 q 0.4,0 0.7,0.3 l 0.3,0.7 v 96 h 96 q 0.4,0 0.7,0.3 l 0.3,0.7 v 1 l -0.3,0.7 q -0.3,0.3 -0.7,0.3 h -96 v 96 l -0.3,0.7 -0.7,0.3 h -1 l -0.7,-0.3 Q 255,866.4 255,866 v -96 h -96 l -0.7,-0.3 Q 158,769.4 158,769"
       id="path10" />
  </g>
</svg>
