<?xml version="1.0" encoding="UTF-8"?>
<svg width="1024" height="1024" version="1.1" xmlns="http://www.w3.org/2000/svg">
 <g>
  <path d="m512 512h-512v-512h512v512h512v512h-512v-512" fill-opacity=".10196"/>
  <path d="m1023 1h-510v510h510v-510m-1022 0v510h510v-510h-510m0 1022h510v-510h-510v510m-1-1023h1024v1024h-1024v-1024m1023 1023v-509.95l-510-0.05v510h510" fill-opacity=".2"/>
  <path d="m768 158h1q0.4 0 0.7 0.3l0.3 0.7v96h96q0.4 0 0.7 0.3l0.3 0.7v1l-0.3 0.7-0.7 0.3h-96v96l-0.3 0.7q-0.3 0.3-0.7 0.3h-1l-0.7-0.3q-0.3-0.3-0.3-0.7v-96h-96l-0.7-0.3q-0.3-0.3-0.3-0.7v-1q0-0.4 0.3-0.7t0.7-0.3h96v-96q0-0.4 0.3-0.7t0.7-0.3m0 512h1q0.4 0 0.7 0.3l0.3 0.7v96h96q0.4 0 0.7 0.3l0.3 0.7v1l-0.3 0.7-0.7 0.3h-96v96l-0.3 0.7q-0.3 0.3-0.7 0.3h-1l-0.7-0.3q-0.3-0.3-0.3-0.7v-96h-96l-0.7-0.3q-0.3-0.3-0.3-0.7v-1q0-0.4 0.3-0.7t0.7-0.3h96v-96q0-0.4 0.3-0.7t0.7-0.3m-413-414v1l-0.3 0.7q-0.3 0.3-0.7 0.3h-96v96l-0.3 0.7-0.7 0.3h-1l-0.7-0.3q-0.3-0.3-0.3-0.7v-96h-96l-0.7-0.3q-0.3-0.3-0.3-0.7v-1q0-0.4 0.3-0.7t0.7-0.3h96v-96q0-0.4 0.3-0.7t0.7-0.3h1q0.4 0 0.7 0.3l0.3 0.7v96h96q0.4 0 0.7 0.3l0.3 0.7m-197 513v-1q0-0.4 0.3-0.7t0.7-0.3h96v-96q0-0.4 0.3-0.7t0.7-0.3h1q0.4 0 0.7 0.3l0.3 0.7v96h96q0.4 0 0.7 0.3l0.3 0.7v1l-0.3 0.7q-0.3 0.3-0.7 0.3h-96v96l-0.3 0.7-0.7 0.3h-1l-0.7-0.3q-0.3-0.3-0.3-0.7v-96h-96l-0.7-0.3q-0.3-0.3-0.3-0.7" fill-opacity=".2"/>
 </g>
</svg>
