<?xml version="1.0" encoding="UTF-8" standalone="no"?>
<svg
   version="1.1"
   id="svg16"
   sodipodi:docname="texture_01.svg"
   width="1024"
   height="1024"
   inkscape:version="1.1.2 (0a00cf5339, 2022-02-04)"
   xmlns:inkscape="http://www.inkscape.org/namespaces/inkscape"
   xmlns:sodipodi="http://sodipodi.sourceforge.net/DTD/sodipodi-0.dtd"
   xmlns="http://www.w3.org/2000/svg"
   xmlns:svg="http://www.w3.org/2000/svg">
  <sodipodi:namedview
     id="namedview18"
     pagecolor="#505050"
     bordercolor="#eeeeee"
     borderopacity="1"
     inkscape:pageshadow="0"
     inkscape:pageopacity="0"
     inkscape:pagecheckerboard="0"
     showgrid="false"
     inkscape:zoom="0.50333333"
     inkscape:cx="506.62252"
     inkscape:cy="457.94702"
     inkscape:window-width="1440"
     inkscape:window-height="831"
     inkscape:window-x="1280"
     inkscape:window-y="32"
     inkscape:window-maximized="1"
     inkscape:current-layer="g14" />
  <defs
     id="defs2" />
  <g
     id="g14">
    <path
       stroke="none"
       fill="#ffffff"
       d="M 1023,1 H 513 v 510 h 510 V 1 M 1,1 V 511 H 511 V 1 H 1 M 1,1023 H 511 V 513 H 1 v 510 m 1022,0 V 513.05 L 513,513 v 510 h 510 M 0,0 H 1024 V 1024 H 0 V 0"
       id="path6" />
    <path
       stroke="none"
       fill="#ffffff"
       fill-opacity="0.2"
       d="m 257,1024 h -1 V 769 H 0 v -1 H 256 V 257 H 0 v -1 H 256 V 0 h 1 V 256 H 768 V 0 h 1 v 256 h 255 v 1 H 769 v 511 h 255 v 1 H 769 v 255 h -1 V 769 H 257 v 255 m 0,-256 H 768 V 257 H 257 v 511"
       id="path8" />
    <path
       stroke="none"
       fill="#ffffff"
       fill-opacity="0.101961"
       d="m 896,0 h 1 v 1024 h -1 V 0 M 640,0 h 1 v 1024 h -1 V 0 M 384,0 h 1 v 1024 h -1 V 0 M 128,0 h 1 v 1024 h -1 V 0"
       id="path10" />
    <path
       stroke="none"
       fill="#ffffff"
       fill-opacity="0.101961"
       d="m 1024,128 v 1 H 0 v -1 h 1024 m 0,256 v 1 H 0 v -1 h 1024 m 0,256 v 1 H 0 v -1 h 1024 m 0,256 v 1 H 0 v -1 h 1024"
       id="path12" />
  </g>
</svg>
