<?xml version="1.0" encoding="UTF-8"?>
<svg width="1024" height="1024" version="1.1" xmlns="http://www.w3.org/2000/svg">
 <g fill="#fff">
  <path d="m1023 1h-510v510h510v-510m-1022 0v510h510v-510h-510m0 1022h510v-510h-510v510m-1-1023h1024v1024h-1024v-1024m1023 1023v-509.95l-510-0.05v510h510"/>
  <path d="m257 1024h-1v-255h-256v-1h256v-511h-256v-1h256v-256h1v256h511v-256h1v256h255v1h-255v511h255v1h-255v255h-1v-255h-511v255m0-256h511v-511h-511v511" fill-opacity=".2"/>
  <path d="m192.6 103.15v-3.65h4.5v3.65h2.4v4.05h-2.4v5h-4.5v-5h-8.4v-3.6l7.45-12.4h5.1l-7.1 11.95h2.95m-19.6-0.75 2.65-3c0.53333-0.73333 0.8-1.45 0.8-2.15 0-0.73333-0.23333-1.3333-0.7-1.8s-1.05-0.7-1.75-0.7c-1.3333 0-2.5833 0.95-3.75 2.85l-3.75-2.25c0.96667-1.5 2.0333-2.6333 3.2-3.4 1.1667-0.8 2.6667-1.2 4.5-1.2 1.8 0 3.3833 0.56667 4.75 1.7 1.3667 1.1667 2.05 2.7333 2.05 4.7 0 1.1-0.28333 2.15-0.85 3.15-0.53333 0.96667-1.5333 2.2167-3 3.75l-3.8 3.95h8.25v4.2h-14.75v-3.5l6.15-6.3m-114.65-41.4h-6.4l-3.35-13.4-3.45 13.4h-6.4l-6.85-21.05h6.7l3.55 14.6 3.55-14.55 6.1-0.05 3.55 14.6 3.55-14.6h6.35l-6.9 21.05m21-3.35h-8.5l-1.25 3.35h-6.45l9-21.05h6.4l8.65 21.05h-6.65l-1.2-3.35m15.65-1.85h8.85v5.2h-15.1v-21.05h6.25v15.85m17.2 0h8.85v5.2h-15.1v-21.05h6.25v15.85m-34.5-2.7-2.55-6.9-2.55 6.9h5.1m-4.35 49.3 2.65-3c0.53333-0.73333 0.8-1.45 0.8-2.15 0-0.73333-0.23333-1.3333-0.7-1.8s-1.05-0.7-1.75-0.7c-1.3333 0-2.5833 0.95-3.75 2.85l-3.75-2.25c0.96667-1.5 2.0333-2.6333 3.2-3.4 1.1667-0.8 2.6667-1.2 4.5-1.2 1.8 0 3.3833 0.56667 4.75 1.7 1.3667 1.1667 2.05 2.7333 2.05 4.7 0 1.1-0.28333 2.15-0.85 3.15-0.53333 0.96667-1.5333 2.2167-3 3.75l-3.8 3.95h8.25v4.2h-14.75v-3.5l6.15-6.3m-18.65 10.05c-2.9 0-5.0667-0.98333-6.5-2.95s-2.15-4.6-2.15-7.9 0.71667-5.9333 2.15-7.9 3.6-2.95 6.5-2.95 5.0667 0.98333 6.5 2.95 2.15 4.6 2.15 7.9-0.71667 5.9333-2.15 7.9-3.6 2.95-6.5 2.95m-3.1-15.9c-0.66667 1.2667-1 2.95-1 5.05s0.33333 3.8 1 5.1c0.66667 1.2667 1.7 1.9 3.1 1.9s2.4333-0.63333 3.1-1.9c0.66667-1.3 1-3 1-5.1s-0.33333-3.7833-1-5.05c-0.66667-1.3-1.7-1.95-3.1-1.95s-2.4333 0.65-3.1 1.95m-18.7-5.35h8.5v21h-4.5v-17h-4v-4m121.45 21.25c-2.9 0-5.0667-0.98333-6.5-2.95s-2.15-4.6-2.15-7.9 0.71667-5.9333 2.15-7.9 3.6-2.95 6.5-2.95 5.0667 0.98333 6.5 2.95 2.15 4.6 2.15 7.9-0.71667 5.9333-2.15 7.9-3.6 2.95-6.5 2.95m-21.8-21.25h8.5v21h-4.5v-17h-4v-4m-14.3 7.45 4.75-4.85 2.6 2.65-4.7 4.85 4.75 4.85-2.6 2.7-4.8-4.9-4.75 4.9-2.65-2.7 4.8-4.85-4.8-4.85 2.65-2.65 4.75 4.85m33-2.1c-0.66667 1.2667-1 2.95-1 5.05s0.33333 3.8 1 5.1c0.66667 1.2667 1.7 1.9 3.1 1.9s2.4333-0.63333 3.1-1.9c0.66667-1.3 1-3 1-5.1s-0.33333-3.7833-1-5.05c-0.66667-1.3-1.7-1.95-3.1-1.95s-2.4333 0.65-3.1 1.95m-58.3 6.6v-3.65h4.5v3.65h2.4v4.05h-2.4v5h-4.5v-5h-8.4v-3.6l7.45-12.4h5.1l-7.1 11.95h2.95"/>
  <path d="m896 0h1v1024h-1v-1024m-256 0h1v1024h-1v-1024m-256 0h1v1024h-1v-1024m-256 0h1v1024h-1v-1024" fill-opacity=".10196"/>
  <path d="m1024 128v1h-1024v-1h1024m0 256v1h-1024v-1h1024m0 256v1h-1024v-1h1024m0 256v1h-1024v-1h1024" fill-opacity=".10196"/>
 </g>
 <path d="m32 76h168" fill="none" stroke="#fff" stroke-miterlimit="3" stroke-width="2"/>
 <path d="m32 76h168" fill="none" stroke="#fff" stroke-miterlimit="3" stroke-width="2"/>
</svg>
