<?xml version="1.0" encoding="UTF-8"?>
<svg width="1024" height="1024" version="1.1" xmlns="http://www.w3.org/2000/svg">
 <g fill="#fff">
  <path d="m1023 1h-510v510h510v-510m-1022 0v510h510v-510h-510m0 1022h510v-510h-510v510m1022 0v-509.95l-510-0.05v510h510m-1023-1023h1024v1024h-1024v-1024"/>
  <path d="m257 1024h-1v-255h-256v-1h256v-511h-256v-1h256v-256h1v256h511v-256h1v256h255v1h-255v511h255v1h-255v255h-1v-255h-511v255m0-256h511v-511h-511v511" fill-opacity=".2"/>
  <path d="m896 0h1v1024h-1v-1024m-256 0h1v1024h-1v-1024m-256 0h1v1024h-1v-1024m-256 0h1v1024h-1v-1024" fill-opacity=".10196"/>
  <path d="m1024 128v1h-1024v-1h1024m0 256v1h-1024v-1h1024m0 256v1h-1024v-1h1024m0 256v1h-1024v-1h1024" fill-opacity=".10196"/>
 </g>
</svg>
